<?xml version="1.0" encoding="UTF-8" standalone="no"?>
<!-- Created with Inkscape (http://www.inkscape.org/) -->

<svg
   width="30.327841mm"
   height="44.046333mm"
   viewBox="0 0 30.327841 44.046333"
   version="1.1"
   id="svg40367"
   inkscape:version="1.2.2 (b0a8486541, 2022-12-01)"
   sodipodi:docname="myjokerminimal_colored.svg"
   inkscape:export-filename="myjokerminimal_colored.png"
   inkscape:export-xdpi="443.04507"
   inkscape:export-ydpi="443.04507"
   xmlns:inkscape="http://www.inkscape.org/namespaces/inkscape"
   xmlns:sodipodi="http://sodipodi.sourceforge.net/DTD/sodipodi-0.dtd"
   xmlns:xlink="http://www.w3.org/1999/xlink"
   xmlns="http://www.w3.org/2000/svg"
   xmlns:svg="http://www.w3.org/2000/svg">
  <sodipodi:namedview
     id="namedview40369"
     pagecolor="#ffffff"
     bordercolor="#000000"
     borderopacity="0.25"
     inkscape:showpageshadow="2"
     inkscape:pageopacity="0.0"
     inkscape:pagecheckerboard="0"
     inkscape:deskcolor="#d1d1d1"
     inkscape:document-units="mm"
     showgrid="false"
     inkscape:zoom="2.7212897"
     inkscape:cx="40.42201"
     inkscape:cy="90.949522"
     inkscape:window-width="1366"
     inkscape:window-height="720"
     inkscape:window-x="0"
     inkscape:window-y="25"
     inkscape:window-maximized="1"
     inkscape:current-layer="g1529" />
  <defs
     id="defs40364">
    <linearGradient
       inkscape:collect="always"
       xlink:href="#linearGradient7324"
       id="linearGradient1712"
       gradientUnits="userSpaceOnUse"
       x1="79.375"
       y1="62.929688"
       x2="79.375"
       y2="101.04297" />
    <linearGradient
       inkscape:collect="always"
       id="linearGradient7324">
      <stop
         style="stop-color:#000080;stop-opacity:1"
         offset="0"
         id="stop7320" />
      <stop
         style="stop-color:#2b0000;stop-opacity:1"
         offset="1"
         id="stop7322" />
    </linearGradient>
    <filter
       style="color-interpolation-filters:sRGB"
       inkscape:label="Drop Shadow"
       id="filter622"
       x="-0.057885673"
       y="-0.070351869"
       width="1.1165245"
       height="1.140698">
      <feFlood
         flood-opacity="0.529412"
         flood-color="rgb(0,0,0)"
         result="flood"
         id="feFlood612" />
      <feComposite
         in="flood"
         in2="SourceGraphic"
         operator="in"
         result="composite1"
         id="feComposite614" />
      <feGaussianBlur
         in="composite1"
         stdDeviation="4"
         result="blur"
         id="feGaussianBlur616" />
      <feOffset
         dx="0"
         dy="0"
         result="offset"
         id="feOffset618" />
      <feComposite
         in="SourceGraphic"
         in2="offset"
         operator="over"
         result="fbSourceGraphic"
         id="feComposite620" />
      <feColorMatrix
         result="fbSourceGraphicAlpha"
         in="fbSourceGraphic"
         values="0 0 0 -1 0 0 0 0 -1 0 0 0 0 -1 0 0 0 0 1 0"
         id="feColorMatrix624" />
      <feFlood
         id="feFlood626"
         flood-opacity="0.529412"
         flood-color="rgb(0,0,0)"
         result="flood"
         in="fbSourceGraphic" />
      <feComposite
         in2="fbSourceGraphic"
         id="feComposite628"
         in="flood"
         operator="in"
         result="composite1" />
      <feGaussianBlur
         id="feGaussianBlur630"
         in="composite1"
         stdDeviation="4"
         result="blur" />
      <feOffset
         id="feOffset632"
         dx="0"
         dy="0"
         result="offset" />
      <feComposite
         in2="offset"
         id="feComposite634"
         in="fbSourceGraphic"
         operator="over"
         result="composite2" />
    </filter>
    <linearGradient
       inkscape:collect="always"
       xlink:href="#linearGradient9450"
       id="linearGradient9452"
       x1="100.68094"
       y1="62.498734"
       x2="68.676483"
       y2="181.94098"
       gradientUnits="userSpaceOnUse"
       gradientTransform="rotate(-15,83.98078,121.59857)" />
    <linearGradient
       inkscape:collect="always"
       id="linearGradient9450">
      <stop
         style="stop-color:#ccff00;stop-opacity:1"
         offset="0"
         id="stop9446" />
      <stop
         style="stop-color:#ff0000;stop-opacity:1"
         offset="1"
         id="stop9448" />
    </linearGradient>
    <linearGradient
       inkscape:collect="always"
       xlink:href="#linearGradient30801"
       id="linearGradient28725"
       x1="96.836884"
       y1="72.980782"
       x2="68.343758"
       y2="179.31857"
       gradientUnits="userSpaceOnUse"
       gradientTransform="rotate(-15,83.98078,121.59857)" />
    <linearGradient
       inkscape:collect="always"
       id="linearGradient30801">
      <stop
         style="stop-color:#00ccff;stop-opacity:1"
         offset="0"
         id="stop30797" />
      <stop
         style="stop-color:#0048ad;stop-opacity:1"
         offset="1"
         id="stop30799" />
    </linearGradient>
    <linearGradient
       inkscape:collect="always"
       xlink:href="#linearGradient9450"
       id="linearGradient9788"
       x1="76.117798"
       y1="149.25284"
       x2="68.714981"
       y2="176.88052"
       gradientUnits="userSpaceOnUse"
       gradientTransform="rotate(-15,83.98078,121.59857)" />
    <linearGradient
       inkscape:collect="always"
       xlink:href="#linearGradient32394"
       id="linearGradient32396"
       x1="73.146988"
       y1="160.94582"
       x2="69.914383"
       y2="173.01006"
       gradientUnits="userSpaceOnUse"
       gradientTransform="rotate(-15,83.98078,121.59857)" />
    <linearGradient
       inkscape:collect="always"
       id="linearGradient32394">
      <stop
         style="stop-color:#00ccff;stop-opacity:1"
         offset="0"
         id="stop32390" />
      <stop
         style="stop-color:#004aae;stop-opacity:1"
         offset="1"
         id="stop32392" />
    </linearGradient>
    <linearGradient
       inkscape:collect="always"
       xlink:href="#linearGradient9450"
       id="linearGradient10146"
       x1="71.204506"
       y1="167.59193"
       x2="69.752724"
       y2="173.01006"
       gradientUnits="userSpaceOnUse"
       gradientTransform="rotate(-15,83.98078,121.59857)" />
    <linearGradient
       inkscape:collect="always"
       xlink:href="#linearGradient9450"
       id="linearGradient10138"
       x1="95.888023"
       y1="75.287437"
       x2="68.792328"
       y2="176.40996"
       gradientUnits="userSpaceOnUse"
       gradientTransform="rotate(-15,83.98078,121.59857)" />
    <linearGradient
       inkscape:collect="always"
       xlink:href="#linearGradient10124"
       id="linearGradient10118"
       x1="95.94442"
       y1="73.873238"
       x2="72.61953"
       y2="160.92291"
       gradientUnits="userSpaceOnUse"
       gradientTransform="rotate(-15,83.98078,121.59857)" />
    <linearGradient
       inkscape:collect="always"
       id="linearGradient10124">
      <stop
         style="stop-color:#ffcc00;stop-opacity:1"
         offset="0"
         id="stop10120" />
      <stop
         style="stop-color:#d4ff2a;stop-opacity:0;"
         offset="1"
         id="stop10122" />
    </linearGradient>
    <linearGradient
       inkscape:collect="always"
       xlink:href="#linearGradient25408"
       id="linearGradient24091"
       x1="107.02161"
       y1="119.91855"
       x2="97.254204"
       y2="156.37097"
       gradientUnits="userSpaceOnUse"
       gradientTransform="rotate(-15,83.98078,121.59857)" />
    <linearGradient
       inkscape:collect="always"
       id="linearGradient25408">
      <stop
         style="stop-color:#00ccff;stop-opacity:1"
         offset="0"
         id="stop25404" />
      <stop
         style="stop-color:#002999;stop-opacity:1"
         offset="1"
         id="stop25406" />
    </linearGradient>
    <linearGradient
       inkscape:collect="always"
       xlink:href="#linearGradient9450"
       id="linearGradient9750"
       x1="102.69025"
       y1="97.836571"
       x2="93.874298"
       y2="130.73817"
       gradientUnits="userSpaceOnUse"
       gradientTransform="rotate(-15,83.98078,121.59857)" />
    <linearGradient
       inkscape:collect="always"
       xlink:href="#linearGradient9450"
       id="linearGradient9758"
       x1="63.86581"
       y1="115.61538"
       x2="55.311138"
       y2="147.54185"
       gradientUnits="userSpaceOnUse"
       gradientTransform="rotate(-15,83.98078,121.59857)" />
    <linearGradient
       inkscape:collect="always"
       xlink:href="#linearGradient10480"
       id="linearGradient10482"
       x1="83.41568"
       y1="88.262802"
       x2="72.654724"
       y2="128.42323"
       gradientUnits="userSpaceOnUse"
       gradientTransform="rotate(-15,83.98078,121.59857)" />
    <linearGradient
       inkscape:collect="always"
       id="linearGradient10480">
      <stop
         style="stop-color:#00ccff;stop-opacity:1"
         offset="0"
         id="stop10476" />
      <stop
         style="stop-color:#000080;stop-opacity:1"
         offset="1"
         id="stop10478" />
    </linearGradient>
    <linearGradient
       inkscape:collect="always"
       xlink:href="#linearGradient20224"
       id="linearGradient20226"
       x1="75.767891"
       y1="125.55933"
       x2="73.437126"
       y2="134.25784"
       gradientUnits="userSpaceOnUse"
       gradientTransform="rotate(-15,83.98078,121.59857)" />
    <linearGradient
       inkscape:collect="always"
       id="linearGradient20224">
      <stop
         style="stop-color:#00ccff;stop-opacity:1"
         offset="0"
         id="stop20220" />
      <stop
         style="stop-color:#0036a2;stop-opacity:1"
         offset="1"
         id="stop20222" />
    </linearGradient>
    <linearGradient
       inkscape:collect="always"
       xlink:href="#linearGradient9450"
       id="linearGradient9774"
       x1="88.510185"
       y1="129.60425"
       x2="87.343025"
       y2="134.83725"
       gradientUnits="userSpaceOnUse"
       gradientTransform="rotate(-15,83.98078,121.59857)" />
    <linearGradient
       inkscape:collect="always"
       xlink:href="#linearGradient10488"
       id="linearGradient10490"
       x1="96.01371"
       y1="100.32036"
       x2="87.728287"
       y2="131.24197"
       gradientUnits="userSpaceOnUse"
       gradientTransform="rotate(-15,83.98078,121.59857)" />
    <linearGradient
       inkscape:collect="always"
       id="linearGradient10488">
      <stop
         style="stop-color:#00ccff;stop-opacity:1"
         offset="0"
         id="stop10484" />
      <stop
         style="stop-color:#003ea7;stop-opacity:1"
         offset="1"
         id="stop10486" />
    </linearGradient>
    <linearGradient
       inkscape:collect="always"
       xlink:href="#linearGradient9450"
       id="linearGradient9796"
       x1="110.11469"
       y1="133.79086"
       x2="102.84468"
       y2="160.92291"
       gradientUnits="userSpaceOnUse"
       gradientTransform="rotate(-15,83.98078,121.59857)" />
    <linearGradient
       inkscape:collect="always"
       xlink:href="#linearGradient16145"
       id="linearGradient16147"
       x1="56.911713"
       y1="112.25283"
       x2="48.639992"
       y2="143.12331"
       gradientUnits="userSpaceOnUse"
       gradientTransform="rotate(-15,83.98078,121.59857)" />
    <linearGradient
       inkscape:collect="always"
       id="linearGradient16145">
      <stop
         style="stop-color:#00ccff;stop-opacity:1"
         offset="0"
         id="stop16141" />
      <stop
         style="stop-color:#002698;stop-opacity:1"
         offset="1"
         id="stop16143" />
    </linearGradient>
    <linearGradient
       inkscape:collect="always"
       xlink:href="#linearGradient9450"
       id="linearGradient9766"
       x1="82.343552"
       y1="98.977562"
       x2="74.169891"
       y2="129.48209"
       gradientUnits="userSpaceOnUse"
       gradientTransform="rotate(-15,83.98078,121.59857)" />
    <linearGradient
       inkscape:collect="always"
       xlink:href="#linearGradient7324"
       id="linearGradient40900"
       gradientUnits="userSpaceOnUse"
       x1="79.375"
       y1="62.929688"
       x2="79.375"
       y2="101.04297" />
  </defs>
  <g
     inkscape:label="Layer 1"
     inkscape:groupmode="layer"
     id="layer1"
     transform="translate(-84.945655,-71.669678)">
    <g
       id="g1529"
       style="display:inline;fill:url(#linearGradient1712);fill-opacity:1"
       transform="matrix(0.21664015,0,0,0.21664015,71.847609,67.349407)">
      <g
         id="g3488"
         style="fill:url(#linearGradient40900)"
         transform="matrix(0.83783817,0,0,0.83783817,60.093192,19.719447)">
        <path
           id="path5"
           d="m 167.27461,235.81366 c 0,3.77735 -3.08691,6.86914 -6.87109,6.86913 H 7.5485466 c -3.7749016,0 -6.8608416,-3.09179 -6.86084173,-6.86914 l 1.4e-6,-122.75063 -3e-8,-105.6770926 c 4.5e-7,-3.777344 3.08593986,-6.87011656 6.86084046,-6.87011673 l 152.8549733,4e-7 c 3.78418,-5.8e-7 6.87109,3.09277233 6.87109,6.87011663 z"
           style="clip-rule:nonzero;display:inline;fill:#ffffff;fill-rule:nonzero;stroke:#000000;stroke-width:0.5;stroke-linecap:square;stroke-linejoin:round;stroke-miterlimit:4;stroke-opacity:1"
           sodipodi:nodetypes="sssscsssss" />
        <path
           d="m 17.807249,25.482523 v -12.298 q 0,-1.056 0.748,-1.276 0.396,-0.066 0.396,-0.198 0,-0.11 -0.484,-0.11 h -3.41 q -0.484,0 -0.484,0.11 -2e-6,0.044 0.396,0.198 0.77,0.242 0.77,1.276 v 4.994 q 0,0.836 -0.066,1.034 -0.176,0.462 -0.77,0.462 0,0 -0.22,-0.044 -0.109996,-0.044 -0.11,0.022 0,0.616 0.571999,0.99 0.572001,0.374 0.572001,0.968 v 3.85 q 0,1.012 -0.396,1.562001 -0.374,0.549999 -0.968,0.549999 -1.65,1e-6 -1.65,-2.442 0,-0.902 0.198,-1.826 0.198,-0.924 0.198,-1.474 0,-1.562 -1.012,-1.562 -0.704,0 -0.704,0.616 0,0.726 0.99,0.748 0.066,0.131999 0.06601,0.307999 -2e-6,0.264 -0.638,1.65 -0.638,1.386 -0.638,2.53 0,1.583999 0.946,2.53 0.946,0.924 2.31,0.924 1.76,0 2.64,-1.276001 0.747999,-1.077999 0.748,-2.815999 z"
           id="path612"
           style="font-size:22px;font-family:Campanile;-inkscape-font-specification:Campanile;fill:#000000;stroke-width:4;stroke-linecap:square;paint-order:stroke fill markers" />
        <path
           d="m 15.046249,33.413023 q -1.98,10e-7 -3.058,2.64 -1.012,2.376 -1.012,6.424001 0,4.025999 1.012,6.467999 1.078,2.640001 3.058,2.64 1.98,0 3.08,-2.64 1.012,-2.442 1.012,-6.467999 0,-4.048001 -1.012,-6.424001 -1.1,-2.64 -3.08,-2.64 z m 0,2.046001 q 1.144001,-10e-7 1.562,1.605999 0.440048,1.627987 0.44,5.412 0,3.828 -0.462001,5.434 -0.417999,1.606 -1.539999,1.606 -1.122,0 -1.562,-1.628 -0.440002,-1.584 -0.44,-5.412 0,-3.805999 0.44,-5.434 0.418,-1.583999 1.562,-1.583999 z"
           id="path614"
           style="font-size:22px;font-family:Campanile;-inkscape-font-specification:Campanile;fill:#000000;stroke-width:4;stroke-linecap:square;paint-order:stroke fill markers" />
        <path
           d="m 10.976249,65.642523 v 6.050001 q 1e-6,1.078 -0.726,1.275999 -0.3959993,0.066 -0.3960003,0.220001 -4.1e-6,0.088 0.4839993,0.088 h 3.388001 q 0.484,0 0.484,-0.088 3e-6,-0.044 -0.374,-0.22 -0.77,-0.198 -0.77,-1.276 l 1e-6,-14.563999 q 0,-1.078 0.77,-1.276001 0.373998,-0.176005 0.373998,-0.198005 0,-0.11 -0.484,-0.109999 l -3.387999,-10e-7 q -0.4840002,0 -0.4840009,0.109997 4e-6,0.131999 0.3959999,0.198001 0.726,0.198 0.726,1.276 v 5.081999 q 0,0.924 -0.154,1.232 -0.132,0.286 -0.682001,0.286 -0.044,-2e-6 -0.1979997,-0.066 -0.088003,-0.022 -0.087999,0.044 -5e-7,0.616 0.5499997,0.968001 0.572,0.33 0.572,0.967999 z m 3.52,0.198001 1.408,4.157999 q 0.418,1.188001 0.417996,1.936001 0,0.748001 -0.418,1.034 -0.044,0.066 -0.22,0.131998 -0.176,0.066 -0.176,0.088 -4e-6,0.088 0.484,0.088 l 3.74,10e-7 q 0.484,-10e-7 0.484001,-0.088 0,-0.110001 -0.396001,-0.220001 -0.769999,-0.242 -1.253999,-1.694 l -2.772,-8.47 1.363999,-3.344 q 0.726,-1.826 1.540001,-2.728 0.572,-0.638 1.122,-0.836 0.440001,-0.131998 0.439993,-0.110027 -4e-6,-0.241999 -0.396001,-0.242 h -4.091999 q -0.220001,0 -0.220001,0.109998 -6e-6,0.022 0.242,0.154 0.264,0.11 0.418,0.33 0.242,0.352 0.242007,0.879999 -1e-6,0.615999 -0.286,1.452 l -2.354,7.238 q -0.528,1.628 -0.528,2.661999 0,1.496 0.924,1.496001 0.351999,-5e-6 0.550001,-0.241997 0.198,-0.242 0.198,-0.461999 0,-0.594 -0.638,-0.594001 -0.088,-4e-6 -0.220001,0.044 -0.198,-0.132001 -0.197997,-0.660002 -1e-6,-0.747999 0.593999,-2.111999 z"
           id="path616"
           style="font-size:22px;font-family:Campanile;-inkscape-font-specification:Campanile;fill:#000000;stroke-width:4;stroke-linecap:square;paint-order:stroke fill markers" />
        <path
           d="m 13.968249,87.026023 h 0.616 q 1.034,0 1.276,0.726001 0.066,0.395999 0.197999,0.395999 0.11,0 0.11,-0.484 v -3.102 q 0,-0.484 -0.109996,-0.484001 -0.131999,4e-6 -0.198,0.396001 -0.22,0.747999 -1.276,0.747999 l -0.616,10e-7 v -5.918 q 0.154,-0.286 0.813999,-0.286004 1.276001,1e-6 1.848,1.254001 0.088,0.175999 0.242003,0.747999 0.154,0.571999 0.396002,1.584 0.286004,1.253998 0.879999,1.253999 0.704001,0 0.704001,-0.615999 0,-0.616001 -0.814,-0.594001 -0.154,-1.496 1.099999,-5.192 h -7.897999 q -0.484,0 -0.484001,0.109997 4e-6,0.131998 0.396,0.197999 0.726,0.198 0.726,1.276 v 5.082 q 0,0.924001 -0.154,1.232 -0.132,0.286001 -0.682,0.286 -0.044,-2e-6 -0.198,-0.066 -0.088,-0.022 -0.088,0.04399 0,0.616001 0.55,0.968 0.572,0.33 0.572,0.968001 v 6.049999 q 0,1.078 -0.726,1.276001 -0.396,0.066 -0.396,0.219999 -4e-6,0.088 0.484,0.088 l 8.118,-1e-6 q -0.99,-3.321999 -0.99,-4.95 0,-0.505999 0.11,-0.989999 0.22,0.044 0.264,0.044 0.527999,-1e-6 0.528,-0.550001 -10e-7,-0.593999 -0.616,-0.593999 -0.902,0 -1.276,1.429999 -0.154,0.682001 -0.308,1.342001 -0.132,0.66 -0.286,1.342 -0.506,1.429999 -1.716001,1.429999 -0.637999,10e-7 -0.879999,-0.351999 -0.22,-0.374001 -0.22,-1.364 z"
           id="path618"
           style="font-size:22px;font-family:Campanile;-inkscape-font-specification:Campanile;fill:#000000;stroke-width:4;stroke-linecap:square;paint-order:stroke fill markers" />
        <path
           d="m 16.971249,107.96952 q 2.288,-2.222 2.288,-4.73 0,-2.134 -1.188001,-3.058 -1.033999,-0.813997 -3.255999,-0.813997 h -4.466 q -0.4839997,0 -0.4840006,0.109997 3.9e-6,0.131998 0.3959996,0.197999 0.726,0.198 0.726,1.276001 v 5.082 q 0,0.924 -0.154,1.232 -0.132,0.286 -0.682,0.286 -0.044,0 -0.1980002,-0.066 -0.088003,-0.022 -0.088002,0.044 -3e-7,0.616 0.5500002,0.968 0.572,0.33 0.572,0.968 v 6.05 q 0,1.078 -0.726,1.276 -0.3959996,0.066 -0.3959999,0.22 -4.2e-6,0.088 0.4839999,0.088 h 3.388 q 0.484,0 0.484,-0.088 2e-6,-0.044 -0.374,-0.22 -0.769999,-0.198 -0.769999,-1.276 l -10e-7,-12.606 q 0,-2.156 0.748001,-2.156 h 1.606 q 1.715999,0 1.716,3.08 0,1.452 -1.012001,2.992 -0.483999,0.616 -0.967999,1.21 -0.462,0.594 -0.946001,1.188 -1.011999,1.342 -1.012,2.244 10e-7,1.232 0.902001,1.232 0.22,0 0.440001,-0.176 0.22,-0.176 0.22,-0.506 -10e-7,-0.55 -0.836,-0.66 -10e-7,-0.792 1.276,-1.914 l 1.583999,7.656 h 3.08 q 0.351999,0 0.374001,-0.088 0,0 -0.616001,-0.308 -0.637999,-0.308 -0.769999,-0.528 -0.33,-1.012 -0.461977,-1.716 z"
           id="path620"
           style="font-size:22px;font-family:Campanile;-inkscape-font-specification:Campanile;fill:#000000;stroke-width:4;stroke-linecap:square;paint-order:stroke fill markers" />
        <path
           d="m 149.28007,217.18434 -1e-5,12.298 q 1e-5,1.056 -0.74799,1.276 -0.39599,0.066 -0.39599,0.19803 -3e-5,0.11002 0.48399,0.11 l 3.41001,1e-5 q 0.484,0 0.484,-0.11002 1e-5,-0.044 -0.396,-0.19799 -0.77001,-0.242 -0.77,-1.276 l -1e-5,-4.994 q 0,-0.836 0.066,-1.034 0.176,-0.462 0.77,-0.462 0,0 0.21998,0.044 0.11004,0.044 0.10995,-0.0222 0,-0.616 -0.572,-0.99 -0.572,-0.374 -0.572,-0.968 v -3.85001 q 0,-1.01199 0.39599,-1.56199 0.37401,-0.55 0.96801,-0.55 1.65,0 1.65,2.442 0,0.902 -0.198,1.826 -0.19801,0.92399 -0.19801,1.47399 1e-5,1.56201 1.012,1.562 0.70401,0 0.70401,-0.616 0,-0.72599 -0.99,-0.74799 -0.066,-0.132 -0.066,-0.30801 -2e-5,-0.26399 0.63801,-1.65001 0.638,-1.386 0.638,-2.52999 0,-1.584 -0.946,-2.53 -0.946,-0.92401 -2.31,-0.92401 -1.76,0 -2.64,1.276 -0.748,1.078 -0.748,2.816 z"
           id="path612-7"
           style="font-size:22px;font-family:Campanile;-inkscape-font-specification:Campanile;fill:#000000;stroke-width:4;stroke-linecap:square;paint-order:stroke fill markers" />
        <path
           d="m 152.04107,209.25384 q 1.98,0 3.058,-2.64 1.012,-2.376 1.012,-6.424 0,-4.026 -1.012,-6.468 -1.078,-2.64001 -3.058,-2.64 -1.98001,0 -3.08001,2.64 -1.01199,2.442 -1.012,6.468 0,4.048 1.01201,6.424 1.1,2.64 3.08,2.64 z m 0,-2.046 q -1.144,0 -1.562,-1.606 -0.44034,-1.62791 -0.44,-5.412 0,-3.828 0.462,-5.434 0.418,-1.606 1.54,-1.606 1.122,0 1.562,1.628 0.43996,1.58401 0.44,5.412 0,3.80599 -0.44,5.434 -0.418,1.584 -1.562,1.584 z"
           id="path614-5"
           style="font-size:22px;font-family:Campanile;-inkscape-font-specification:Campanile;fill:#000000;stroke-width:4;stroke-linecap:square;paint-order:stroke fill markers" />
        <path
           d="m 156.11106,177.02434 1e-5,-6.05 q 0,-1.07801 0.72599,-1.276 0.39602,-0.066 0.39601,-0.22 2e-5,-0.088 -0.484,-0.088 h -3.388 q -0.484,0 -0.48401,0.088 -1e-5,0.044 0.37399,0.22 0.77001,0.198 0.77,1.276 v 14.564 q 1e-5,1.078 -0.76999,1.276 -0.374,0.176 -0.37399,0.19805 -3e-5,0.11001 0.484,0.11 h 3.388 q 0.484,0 0.484,-0.11002 3e-5,-0.13201 -0.396,-0.198 -0.72601,-0.198 -0.726,-1.276 v -5.082 q 0,-0.924 0.15399,-1.232 0.13201,-0.286 0.68202,-0.28596 0.044,1e-5 0.198,0.066 0.088,0.022 0.088,-0.044 0,-0.616 -0.54999,-0.968 -0.57201,-0.33 -0.57201,-0.968 z m -3.51999,-0.198 -1.408,-4.158 q -0.41802,-1.188 -0.41802,-1.936 1e-5,-0.748 0.41801,-1.034 0.044,-0.066 0.21999,-0.13204 0.176,-0.066 0.17601,-0.088 3e-5,-0.088 -0.484,-0.088 h -3.74 q -0.484,0 -0.484,0.088 -3e-5,0.11001 0.39599,0.22001 0.77,0.24199 1.25401,1.69399 l 2.77199,8.47 -1.364,3.344 q -0.726,1.82601 -1.53999,2.728 -0.57201,0.638 -1.122,0.836 -0.44002,0.13198 -0.4401,0.10964 3e-5,0.242 0.396,0.24201 h 4.092 q 0.21999,-4e-5 0.22,-0.10999 2.8e-4,-0.0221 -0.242,-0.154 -0.264,-0.11 -0.418,-0.33 -0.242,-0.352 -0.24201,-0.88 0,-0.616 0.28601,-1.452 l 2.35399,-7.23801 q 0.528,-1.628 0.528,-2.66199 0,-1.49601 -0.924,-1.49601 -0.35199,1e-5 -0.55,0.242 -0.198,0.24199 -0.198,0.462 0,0.594 0.63799,0.59399 0.088,3e-5 0.21999,-0.044 0.198,0.132 0.19797,0.66001 0,0.748 -0.594,2.112 z"
           id="path616-3"
           style="font-size:22px;font-family:Campanile;-inkscape-font-specification:Campanile;fill:#000000;stroke-width:4;stroke-linecap:square;paint-order:stroke fill markers" />
        <path
           d="m 153.11907,155.64084 h -0.616 q -1.034,0 -1.276,-0.72601 -0.066,-0.39598 -0.19804,-0.39598 -0.11001,-3e-5 -0.11,0.484 v 3.102 q 0,0.484 0.11001,0.484 0.13201,3e-5 0.198,-0.396 0.22,-0.748 1.276,-0.748 l 0.616,-1e-5 v 5.91801 q -0.15401,0.286 -0.814,0.28602 -1.276,-10e-6 -1.848,-1.254 -0.0881,-0.17599 -0.24204,-0.74799 -0.15399,-0.572 -0.39596,-1.58402 -0.28601,-1.25399 -0.88001,-1.25399 -0.704,0 -0.70399,0.61599 -1e-5,0.61601 0.81399,0.59401 0.154,1.496 -1.09999,5.192 h 7.898 q 0.484,0 0.48399,-0.11002 4e-5,-0.13201 -0.396,-0.198 -0.726,-0.198 -0.726,-1.276 l -1e-5,-5.082 q 1e-5,-0.924 0.15401,-1.232 0.132,-0.286 0.68201,-0.28596 0.044,1e-5 0.198,0.066 0.088,0.022 0.088,-0.044 0,-0.616 -0.55001,-0.96799 -0.57199,-0.33 -0.57199,-0.968 v -6.05001 q -10e-6,-1.07799 0.726,-1.27599 0.39599,-0.066 0.396,-0.22001 2e-5,-0.088 -0.484,-0.088 h -8.118 q 0.99003,3.322 0.99,4.95001 0,0.50599 -0.11,0.98999 -0.21999,-0.044 -0.26401,-0.044 -0.52799,1e-5 -0.52799,0.55001 0,0.594 0.616,0.594 0.90199,-1e-5 1.276,-1.43 0.154,-0.68201 0.308,-1.34201 0.13199,-0.66 0.286,-1.342 0.506,-1.42999 1.716,-1.43 0.638,1e-5 0.88,0.35201 0.22,0.37399 0.21999,1.364 z"
           id="path618-5"
           style="font-size:22px;font-family:Campanile;-inkscape-font-specification:Campanile;fill:#000000;stroke-width:4;stroke-linecap:square;paint-order:stroke fill markers" />
        <path
           d="m 150.11607,134.69734 q -2.288,2.222 -2.288,4.73 0,2.134 1.188,3.058 1.034,0.814 3.256,0.814 h 4.466 q 0.484,0 0.484,-0.11001 3e-5,-0.13201 -0.396,-0.198 -0.72601,-0.198 -0.72601,-1.276 l 10e-6,-5.082 q 0,-0.924 0.154,-1.23201 0.13199,-0.28599 0.68201,-0.28596 0.044,2e-5 0.19799,0.066 0.088,0.022 0.088,-0.044 0,-0.616 -0.55,-0.96801 -0.572,-0.33 -0.57199,-0.968 l -1e-5,-6.04999 q 0,-1.07801 0.726,-1.27601 0.39599,-0.066 0.396,-0.21999 2e-5,-0.088 -0.484,-0.088 h -3.388 q -0.484,-10e-6 -0.48401,0.088 -1e-5,0.044 0.37401,0.22 0.76999,0.19801 0.77,1.27601 l -1e-5,12.606 q 0,2.15599 -0.74799,2.156 l -1.60601,-10e-6 q -1.716,10e-6 -1.716,-3.07999 0,-1.45201 1.01201,-2.99201 0.48399,-0.616 0.96799,-1.20999 0.462,-0.59401 0.94601,-1.18801 1.012,-1.34199 1.01199,-2.24399 0,-1.232 -0.902,-1.23201 -0.21999,4e-5 -0.44001,0.17598 -0.21999,0.176 -0.21999,0.506 0,0.54999 0.83599,0.66 1e-5,0.79199 -1.27599,1.914 l -1.58401,-7.656 h -3.08 q -0.35199,0 -0.37399,0.088 0,0 0.61599,0.308 0.63801,0.308 0.77001,0.528 0.32997,1.01201 0.46188,1.71603 z"
           id="path620-6"
           style="font-size:22px;font-family:Campanile;-inkscape-font-specification:Campanile;fill:#000000;stroke-width:4;stroke-linecap:square;paint-order:stroke fill markers" />
        <path
           id="path1240"
           style="color:#000000;fill:#000000;stroke-width:0.980178;stroke-linecap:square;stroke-linejoin:round;stroke-miterlimit:0;-inkscape-stroke:none;paint-order:fill markers stroke"
           d="m 27.136293,14.799363 0.908339,0.960356 H 144.6462 c 4.69614,0 8.46094,3.618641 8.46094,8.130447 v 91.757894 l 0.99902,0.79211 V 23.890166 c 0,-5.027442 -4.22712,-9.090802 -9.45996,-9.090802 z m -12.279647,112.633597 -1.00049,-0.70378 2e-6,92.58067 c -2e-6,5.02743 4.230047,9.08939 9.462888,9.08939 H 140.61631 l -0.69712,-0.96178 -116.600143,-10e-6 c -4.69614,0 -8.462402,-3.61581 -8.462403,-8.12762 z"
           sodipodi:nodetypes="ccssccsscccssccssc" />
        <path
           id="path2250-50-0"
           style="color:#000000;display:inline;fill:#000000;stroke-width:2.92497;stroke-linecap:square;-inkscape-stroke:none;paint-order:markers stroke fill"
           d="m 83.639254,76.490752 v 58.409198 l 0.09521,0.14063 c 4.506689,6.60088 9.482691,15.26821 17.031736,18.08056 5.18655,1.36494 11.17834,0.79851 14.70996,-1.17041 10.47927,-6.79458 11.5926,-19.15146 5.63526,-28.00634 C 109.95665,108.77335 90.633356,95.511045 84.175385,78.311562 83.995963,77.729192 83.680936,76.63525 83.639256,76.490751 Z" />
        <circle
           style="display:inline;fill:#f9f9f9;stroke:none;stroke-width:0.699921;stroke-linecap:square;stroke-linejoin:round;stroke-miterlimit:0;stroke-dasharray:none;stroke-opacity:1;paint-order:markers stroke fill;stop-color:#000000"
           id="path6970"
           cx="62.929459"
           cy="112.03951"
           r="2" />
        <ellipse
           style="display:inline;fill:#ffffff;fill-opacity:1;stroke:#000000;stroke-width:0.999997;stroke-linecap:square;stroke-linejoin:round;stroke-miterlimit:0;stroke-dasharray:none;stroke-opacity:1;paint-order:markers stroke fill;stop-color:#000000"
           id="path17899"
           cx="110.23129"
           cy="140.04593"
           rx="8.4946938"
           ry="5.2500091" />
        <path
           id="path2653-5-5-0"
           style="color:#000000;display:inline;fill:#ffffff;fill-opacity:1;stroke-width:2.92497;-inkscape-stroke:none"
           d="m 83.789886,76.561068 v 51.583002 c 9.357518,7.49984 26.826364,-16.09301 35.186784,-7.49568 v 0 C 107.82189,105.47736 90.880674,95.553515 84.422698,78.354037 Z"
           sodipodi:nodetypes="cccccc" />
        <path
           style="color:#000000;display:inline;fill:#000000;stroke-width:2.92497;stroke-linecap:square;-inkscape-stroke:none;paint-order:markers stroke fill"
           d="m 82.34157,74.254847 c 0,0 -0.37635,1.454753 -0.59928,2.086161 -7.43245,19.544555 -25.59122,29.356602 -36.936399,45.632032 -6.063501,9.34359 -4.046932,22.3706 5.63538,28.00694 4.990129,2.31346 9.174568,2.95721 14.710068,1.16919 8.356282,-4.14209 12.04782,-10.6144 17.03249,-18.07967 l 0.191719,-0.28758 0.09591,0.14234 c 4.506688,6.6009 9.483417,15.2673 17.032489,18.07967 5.186563,1.36495 11.178443,0.79974 14.710063,-1.16919 10.47929,-6.7946 11.59273,-19.15204 5.63538,-28.00695 C 108.69459,106.65674 89.370974,93.395274 82.912985,76.19576 82.721866,75.575416 82.3416,74.254845 82.3416,74.254845 Z"
           id="path2250-5" />
        <path
           id="path2653-5-5-6"
           style="color:#000000;display:inline;fill:#1a1a1a;stroke-width:2.92497;-inkscape-stroke:none"
           d="m 83.639243,76.561069 v 51.583001 l -39.747064,1e-5 c 0.565789,-1.44297 1.2917,-2.83951 2.178218,-4.15723 11.154779,-15.17103 30.478059,-28.433335 36.936034,-45.632813 z m 1e-6,53.547361 10e-7,4.68751 -0.191894,0.2871 c -4.506687,6.6009 -9.482675,15.26819 -17.031743,18.08056 -5.186549,1.36499 -11.178341,0.79852 -14.709961,-1.17041 -8.221079,-5.33041 -10.676319,-14.08403 -8.477051,-21.88476 z" />
        <path
           style="color:#000000;fill:#d4ff2a;fill-opacity:1;stroke:none;stroke-width:1.10187;stroke-linecap:square;-inkscape-stroke:none;paint-order:markers stroke fill"
           d="m 83.4045,56.376885 -0.505861,1.736329 -2.761718,9.45703 C 75.507138,83.424281 66.804516,92.21775 56.906452,102.20306 c -8.340516,8.40436 -13.1744,13.45115 -16.275391,17.98242 -3.142746,4.5923 -4.203601,8.86382 -4.496093,13.46875 -0.204868,3.22534 -0.113894,6.8057 0.654297,9.64649 1.601622,5.922 6.052741,11.04978 11.648437,14.19336 3.59829,2.02138 6.690046,2.81471 10.980469,2.83007 3.033955,0.0111 6.342716,-0.26122 9.015624,-1.18555 2.344049,-0.81058 4.592109,-2.21099 6.734375,-3.85742 -0.803653,2.62072 -1.769067,4.92717 -3.062499,6.73828 -2.939008,4.11533 -7.382802,7.05162 -15.306642,9.4375 -6.45e-4,2e-4 -0.0013,-1.9e-4 -0.002,0 -1.6e-4,1e-5 -0.0039,2e-5 -0.0039,2e-5 -4.905635,1.44166 -8.839846,2.12694 -8.839846,2.12694 l -6.179687,1.07422 2.460939,5.92384 0.06836,0.13085 c 0.0028,0.005 0.05689,0.11422 0.132811,0.25001 0.0273,0.0488 0.103834,0.25518 0.466796,0.70702 0.269266,0.33495 0.547644,0.58553 0.73828,0.74219 0.406864,0.33436 0.841751,0.57823 1.128906,0.71289 l 0.002,1e-5 c 0.547597,0.25673 1.092874,0.4058 1.552736,0.50977 0.983166,0.22228 2.303264,0.40544 4.621092,0.59179 4.645143,0.37346 13.354229,0.72267 30.396486,0.72266 0.06969,-3e-5 0.123849,5.7e-4 0.160143,-4e-5 0.01805,-7e-4 0.0312,-0.002 0.0411,-0.002 0,0 -0.01624,-1.10159 -0.01758,-1.10157 -0.0013,5e-5 -0.0024,-8e-5 -0.006,-4.5e-4 -0.0071,-1.7e-4 -0.01969,0.002 -0.03512,0.002 -0.03098,2e-5 -0.07837,-2e-5 -0.142577,0 -17.027188,0 -25.718611,-0.34973 -30.308595,-0.71875 -2.293392,-0.18439 -3.563966,-0.36424 -4.466798,-0.56836 -0.41829,-0.0946 -0.88699,-0.22678 -1.328122,-0.43359 -0.202806,-0.0951 -0.594432,-0.31658 -0.898438,-0.56641 -0.148102,-0.1217 -0.373831,-0.32595 -0.578125,-0.58007 -0.323989,-0.40334 -0.249899,-0.34843 -0.365235,-0.5547 -0.06484,-0.11595 -0.113281,-0.21289 -0.113281,-0.21289 l -6.9e-5,-0.004 -0.04883,-0.0918 -1.914063,-4.60939 4.77344,-0.83007 h 0.002 l 0.04676,-0.008 c 0,0 3.993978,-0.69501 8.964843,-2.15625 l 0.002,1e-5 c 1.6e-5,0 -3.5e-5,-0.002 -1.9e-5,-0.002 4.5e-4,-5e-5 0.0056,-4.5e-4 0.006,4.6e-4 8.05647,-2.42555 12.784565,-5.50778 15.88672,-9.85156 1.668311,-2.33604 2.877511,-5.23095 3.765625,-8.70313 l 0.431642,-1.69335 -1.326173,1.13866 c -2.451494,2.10663 -5.109845,3.76544 -7.798827,4.69533 -2.467664,0.85333 -5.689536,1.13586 -8.652345,1.12499 -4.160478,-0.0149 -6.970882,-0.73765 -10.445312,-2.68945 -5.366189,-3.01464 -9.614377,-7.9412 -11.123046,-13.51953 -0.712167,-2.6335 -0.819295,-6.13792 -0.619141,-9.28906 0.284686,-4.48206 1.277029,-8.48904 4.30664,-12.91603 3.014445,-4.40479 7.811643,-9.43143 16.146484,-17.83007 l 0.002,1e-5 C 67.58837,92.992277 76.490265,83.984741 81.1937,67.878489 l 2.253908,-7.71875 2.429687,7.664062 -9e-6,0.002 c 3.952268,12.463676 12.059715,25.039072 23.402344,35.039069 l 0.0644,0.0567 0.0566,0.0566 c 8.33411,8.39789 13.13016,13.4254 16.14452,17.83007 3.02962,4.42698 4.0239,8.43396 4.3086,12.91602 0.20015,3.15115 0.0931,6.65549 -0.61915,9.28906 -1.50865,5.57834 -5.7588,10.50489 -11.12499,13.51953 -3.47445,1.95179 -6.28484,2.67459 -10.44532,2.68946 -2.96214,0.0103 -6.1843,-0.27153 -8.652337,-1.125 -2.688983,-0.92988 -5.347337,-2.5887 -7.798829,-4.69532 l -1.326172,-1.13867 0.433588,1.69336 c 0.888115,3.47217 2.097315,6.3671 3.765626,8.70313 3.10112,4.34232 7.827234,7.42439 15.878904,9.84961 l 0.008,0.002 0.0703,0.0215 0.0195,-5e-5 c 4.65466,1.36008 8.05086,1.95891 8.42578,2.02539 l -3.8e-4,0.0333 5.27931,0.916 -1.91602,4.60939 -0.0469,0.0918 -0.002,0.004 c 0,0 -0.0486,0.0954 -0.11329,0.21094 l 2e-5,0.002 c -0.11516,0.20592 -0.0431,0.15402 -0.36132,0.55079 -4.5e-4,0.002 -6.3e-4,3e-4 -0.002,0.001 l -0.002,10e-4 c -0.20399,0.25395 -0.42812,0.45683 -0.57813,0.58008 -0.30406,0.2499 -0.69355,0.47126 -0.89648,0.56641 -0.44092,0.20676 -0.91156,0.33898 -1.33007,0.43362 -0.90283,0.20413 -2.17145,0.38398 -4.46484,0.56836 -4.58999,0.36902 -13.28337,0.71875 -30.310552,0.71875 -0.127808,-2e-5 -0.199576,-0.002 -0.201173,-0.002 l 2e-6,1.10157 c 0.0016,1e-5 0.06236,0.002 0.201172,0.002 17.042251,-1e-5 25.753291,-0.34921 30.398441,-0.72266 2.31782,-0.18636 3.63596,-0.36952 4.61913,-0.5918 0.46034,-0.10399 1.00741,-0.25316 1.5547,-0.50975 0.28732,-0.13466 0.72204,-0.37849 1.1289,-0.71289 0.1921,-0.15783 0.4695,-0.40758 0.73829,-0.74219 l 0.002,-0.001 c 0.36182,-0.45088 0.43798,-0.65705 0.46484,-0.70508 0.0763,-0.1363 0.13237,-0.24523 0.13477,-0.24999 l 0.002,-0.006 0.0645,-0.12502 2.46094,-5.92382 -5.72266,-0.99414 -1e-5,-0.002 -0.45704,-0.0801 c 0,0 -3.93577,-0.68168 -8.8496,-2.12695 -7.92022,-2.38562 -12.362504,-5.32125 -15.300783,-9.43555 -1.293431,-1.81112 -2.2608,-4.11756 -3.064452,-6.73828 2.142265,1.64643 4.390329,3.04683 6.734374,3.85742 2.673461,0.92451 5.982681,1.19605 9.015631,1.18555 4.29043,-0.0153 7.38218,-0.80871 10.98047,-2.83008 5.59569,-3.14357 10.04878,-8.27134 11.65038,-14.19336 0.76826,-2.84086 0.85916,-6.42114 0.65429,-9.64648 -0.2925,-4.60493 -1.35529,-8.87646 -4.49803,-13.46875 -3.10109,-4.5314 -7.93408,-9.57926 -16.27539,-17.98438 l -2e-5,-0.002 -0.084,-0.084 -0.0879,-0.0762 -10e-4,-0.002 C 98.813117,92.168344 90.813203,79.744516 86.927932,67.49212 Z m 38.77929,125.292965 -0.0391,0.045 0.0234,-0.0234 z M 84.183796,76.757745 l 0.04687,0.232421 -1.056642,-0.226562 c -5.406566,12.776403 -13.64766,21.230241 -22.0039,29.660156 l -0.0039,0.002 1.9e-5,0.002 c -8.304576,8.36813 -12.971065,13.32841 -15.583984,17.1465 -2.579959,3.76992 -3.202858,6.42855 -3.458984,10.46093 -0.172547,2.71654 0.04431,6.16576 0.458984,7.69921 1.073389,3.96886 4.49902,8.11654 8.792968,10.5293 l 0.002,1e-5 0.122981,0.0702 0.03513,-9e-5 c 2.933231,1.63153 4.239472,1.97713 7.904298,1.99024 2.533713,0.009 5.658034,-0.37991 7.033202,-0.85547 3.789324,-1.31038 8.824867,-5.60861 12.03125,-10.41016 l 4.748047,-7.10156 -0.07422,-0.98438 0.365236,0.54688 0.367186,-0.54884 -0.07422,0.98634 4.748045,7.10156 c 3.206372,4.80156 8.239979,9.09978 12.029288,10.41015 1.37471,0.47541 4.49865,0.86471 7.0332,0.85548 3.74393,-0.0134 4.99242,-0.3348 8.06446,-2.06055 4.29463,-2.41266 7.72146,-6.56011 8.79493,-10.5293 0.41474,-1.53344 0.63154,-4.98268 0.45898,-7.69921 -0.25612,-4.0324 -0.88099,-6.691 -3.46093,-10.46094 -2.59652,-3.79409 -7.25196,-8.74448 -15.459,-17.01758 l 0.008,-0.008 -0.012,-0.01 c -0.008,-0.007 -0.0143,-0.0146 -0.0215,-0.0215 C 96.274027,97.919302 88.926478,87.534352 84.183796,76.757745 Z m -0.507813,1.43164 c 4.788895,10.505021 11.975455,20.595602 21.466797,29.009765 l -0.004,0.004 c 8.29628,8.35975 12.93719,13.31492 15.45508,16.99415 2.49418,3.6446 3.0202,5.95197 3.27148,9.90819 0.16445,2.5888 -0.10177,6.15103 -0.42382,7.34181 -0.9673,3.57662 -4.23209,7.58728 -8.26953,9.85546 -3.02182,1.69753 -3.83706,1.90671 -7.5293,1.91994 -2.40604,0.009 -5.64689,-0.44114 -6.66992,-0.79493 -3.352681,-1.15938 -8.398107,-5.3763 -11.472655,-9.98046 l -4.537111,-6.78711 0.359377,-4.78321 -1.779297,2.65821 -1.777346,-2.65821 0.359376,4.78321 -4.537108,6.78711 c -3.074561,4.60415 -8.121925,8.82108 -11.474611,9.98046 -1.023479,0.35395 -4.264739,0.80372 -6.669922,0.79493 -3.691332,-0.0132 -4.507076,-0.22339 -7.527344,-1.91993 h -0.002 c -0.0029,-0.002 -0.005,-0.004 -0.0079,-0.006 -4.032917,-2.26914 -7.29327,-6.27597 -8.259767,-9.8496 -0.322002,-1.19091 -0.588258,-4.75301 -0.423826,-7.34179 0.251289,-3.95621 0.775347,-6.26361 3.269531,-9.9082 2.517761,-3.67905 7.159575,-8.63318 15.455079,-16.9922 l -1.9e-5,-0.002 0.0021,-0.002 0.002,1e-5 C 70.080582,99.000561 78.179243,90.582674 83.675912,78.189777 Z m 0.476564,67.472665 -1.214844,0.0312 0.05273,0.52734 c -0.779865,8.01407 -2.487587,14.36614 -6.001954,19.28711 -3.854963,5.39789 -9.797579,9.08592 -18.466796,11.69531 l -0.0059,0.002 c -0.0029,8.8e-4 -0.0048,0.003 -0.0078,0.004 l -0.01367,0.004 c -0.179571,0.0533 -0.222319,0.0585 -0.298697,0.0728 -0.07638,0.0142 -0.194101,0.037 -0.396482,0.0937 l 0.121094,1.08007 c 5.000654,0.26012 12.186079,0.49023 25.421875,0.49024 0.06064,0 0.08049,-0.002 0.201163,-0.002 l 0.002,1e-5 c 0.119501,-3e-5 0.138546,0.002 0.199221,0.002 13.235796,0 20.423173,-0.23012 25.423843,-0.49024 l 0.12108,-1.08007 c -0.20441,-0.0573 -0.32305,-0.0796 -0.40038,-0.0937 -0.0773,-0.0141 -0.12085,-0.0207 -0.30274,-0.0742 l -0.0136,-0.004 c -0.004,-0.001 -0.006,-0.003 -0.01,-0.004 l -0.002,-1e-5 C 99.894993,174.59434 93.95412,170.9049 90.100036,165.50825 86.58567,160.58728 84.877948,154.23521 84.098082,146.22114 Z m -0.609376,4.68358 c 0.948697,6.26542 2.620617,11.54664 5.660155,15.80274 3.647351,5.10717 9.190648,8.6652 16.724604,11.27148 -4.88744,0.21748 -10.620085,0.42774 -22.183587,0.42774 -0.02724,6e-5 -0.06799,-0.002 -0.19922,-0.002 l -0.002,-10e-6 c -0.132288,4e-5 -0.173997,0.002 -0.201163,0.002 -11.564392,1e-5 -17.296089,-0.21025 -22.183594,-0.42774 7.534955,-2.60628 13.078882,-6.16385 16.726564,-11.27148 3.039496,-4.25604 4.709498,-9.53742 5.658203,-15.80273 z"
           id="path1855" />
        <path
           style="color:#000000;fill:url(#linearGradient9452);fill-opacity:1;stroke:none;stroke-width:1.10187;stroke-linecap:square;-inkscape-stroke:none;paint-order:markers stroke fill"
           d="m 83.426528,58.267998 -2.761718,9.457031 c -4.666614,15.980159 -13.468858,24.87966 -23.367189,34.865231 -8.337686,8.40151 -13.153214,13.43822 -16.210935,17.90626 -3.086182,4.50964 -4.113754,8.64986 -4.402346,13.19335 -0.202509,3.18825 -0.103445,6.72965 0.636719,9.4668 1.555147,5.75018 5.905771,10.77832 11.386718,13.85742 3.536363,1.98659 6.487435,2.74464 10.712893,2.75978 2.998384,0.011 6.263694,-0.26743 8.833983,-1.15626 2.773714,-0.95918 5.486198,-2.65519 7.978516,-4.79688 -0.876571,3.42703 -2.063452,6.25642 -3.679687,8.51953 -3.020705,4.22972 -7.60689,7.23876 -15.597657,9.64453 -0.002,6.1e-4 -0.0019,-5.2e-4 -0.0039,2e-5 -4.939686,1.45207 -8.904298,2.14258 -8.904298,2.14258 h -0.002 l -5.49805,0.95507 2.187501,5.26758 0.05664,0.10937 c 0,0 0.05368,0.10684 0.125002,0.23438 0.07132,0.12755 0.07254,0.20326 0.416016,0.63087 0.236778,0.29453 0.488833,0.52293 0.658202,0.6621 0.355436,0.2921 0.768688,0.52379 1.013672,0.63868 0.494365,0.23176 1.002328,0.37338 1.441405,0.47265 0.943001,0.21321 2.237357,0.39471 4.54297,0.58008 4.617567,0.37123 13.318776,0.7207 30.353517,0.72071 0.13388,-6e-5 0.201404,-0.002 0.201163,-0.002 0.0016,2e-5 0.06786,0.002 0.201171,0.002 17.034734,0 25.735944,-0.34947 30.353514,-0.7207 2.30561,-0.18537 3.59998,-0.36687 4.54298,-0.58008 0.43942,-0.0993 0.9473,-0.24099 1.4414,-0.47266 0.24511,-0.11496 0.65819,-0.34652 1.01367,-0.63868 0.17104,-0.14056 0.42181,-0.36783 0.6582,-0.66211 l 0.002,-0.001 c 0.34229,-0.42651 0.34281,-0.50151 0.41407,-0.62891 0.0713,-0.12739 0.125,-0.23438 0.125,-0.23438 l 0.0566,-0.10938 2.1875,-5.26758 -5.5,-0.95508 -2e-5,-0.002 c 0,0 -3.96688,-0.68807 -8.91211,-2.14258 l -0.004,4e-5 c -7.98595,-2.40541 -12.570141,-5.41427 -15.589843,-9.64258 -1.616235,-2.26312 -2.803115,-5.09249 -3.679685,-8.51952 2.492314,2.14168 5.2048,3.83769 7.978515,4.79687 2.570753,0.889 5.836433,1.16664 8.833983,1.15625 4.22547,-0.0151 7.17652,-0.77319 10.71289,-2.75977 5.48095,-3.07911 9.83158,-8.10724 11.38673,-13.85742 0.74022,-2.73722 0.83923,-6.27854 0.63672,-9.4668 -0.2886,-4.5435 -1.31617,-8.68372 -4.40235,-13.19336 -3.05788,-4.46824 -7.8725,-9.50595 -16.21094,-17.9082 l -0.0703,-0.0703 -0.0762,-0.0664 C 98.374826,92.517019 90.321982,80.017049 86.403091,67.658618 Z m 0.253907,18.710931 C 88.45878,87.836568 95.857197,98.294635 105.67652,106.9516 l -0.14648,-0.13673 c 8.30044,8.36395 12.95412,13.32166 15.51953,17.07032 2.53707,3.70728 3.11153,6.19123 3.36523,10.18554 0.1685,2.65267 -0.073,6.15743 -0.44139,7.51953 -1.02039,3.77291 -4.36521,7.85294 -8.53125,10.19336 -3.04694,1.71165 -4.0788,1.97694 -7.7969,1.9902 -2.4703,0.009 -5.65269,-0.41159 -6.85156,-0.82619 -3.571005,-1.23487 -8.611486,-5.49244 -11.751951,-10.19531 l -4.642578,-6.94336 0.216797,-2.88476 -1.072265,1.60351 -1.072265,-1.6035 0.216796,2.88475 -4.642579,6.94336 c -3.140474,4.70286 -8.180944,8.96043 -11.751951,10.19532 -1.19933,0.41474 -4.382112,0.83521 -6.851564,0.82617 -3.717287,-0.0133 -4.749588,-0.27962 -7.794922,-1.99024 h -0.002 c -4.165391,-2.34054 -7.510972,-6.42086 -8.53125,-10.19336 -0.368313,-1.3622 -0.609896,-4.86687 -0.441407,-7.51954 0.253709,-3.9943 0.828162,-6.47827 3.365234,-10.18555 2.565406,-3.74865 7.219101,-8.70635 15.519532,-17.07031 l 0.0021,-0.002 C 69.918326,98.380208 78.229094,89.861078 83.680436,76.978879 Z m -0.13672,69.250001 c 0.782496,8.0855 2.504931,14.55524 6.107423,19.59961 3.942845,5.52094 10.017826,9.27542 18.761712,11.90625 l 0.008,0.002 0.0101,0.002 c 0.39148,0.11519 0.32978,0.0636 0.70898,0.16993 -4.99021,0.25957 -12.165124,0.49024 -25.394527,0.49024 -0.04397,-2e-5 -0.07384,-0.002 -0.199222,-0.002 l -0.002,-1e-5 c -0.126481,4e-5 -0.157273,0.002 -0.201163,0.002 -13.229406,-1e-5 -20.404322,-0.23068 -25.394532,-0.49025 0.375225,-0.10468 0.314083,-0.0541 0.701164,-0.168 l 0.0098,-0.002 0.0078,-0.002 c 8.74849,-2.63101 14.825407,-6.38548 18.769533,-11.9082 3.60249,-5.04438 5.324924,-11.51412 6.107422,-19.59961 z"
           id="path1852" />
        <path
           style="color:#000000;display:inline;fill:url(#linearGradient28725);fill-opacity:1;stroke:none;stroke-width:6;stroke-linecap:square;-inkscape-stroke:none;paint-order:markers stroke fill"
           d="m 83.543747,68.565548 c -4.870389,16.67796 -14.214549,26.147471 -24.115919,36.136112 -8.319441,8.3831 -13.05456,13.38057 -15.866201,17.48903 -2.81163,4.10846 -3.61164,7.42014 -3.882788,11.68905 -0.185502,2.92045 -0.0159,6.44406 0.538359,8.49374 1.287769,4.76154 5.136209,9.31622 9.959709,12.02599 3.291642,1.84912 5.283001,2.36001 9.254791,2.37423 2.73392,0.01 5.95824,-0.33973 7.843048,-0.99152 4.597022,-1.58969 9.807281,-6.18516 13.265411,-11.36371 l 0.230452,-0.3447 c -0.658313,8.77254 -2.345322,15.20829 -5.77481,20.01043 -3.483641,4.87793 -8.817111,8.25999 -17.19274,10.77887 -5.114701,1.50391 -9.243182,2.21928 -9.243182,2.21928 l -1.80293,0.31371 0.70103,1.68869 c 0,0 0.136591,0.26504 0.213021,0.36019 0.0764,0.0952 0.153459,0.16614 0.22465,0.22464 0.142369,0.117 0.264199,0.18423 0.38343,0.24014 0.23847,0.1118 0.474371,0.1813 0.82885,0.26143 0.70895,0.16029 1.88853,0.33759 4.120989,0.51707 4.464921,0.35896 13.12007,0.7107 30.113432,0.71071 0.0889,-1e-5 0.138281,-0.002 0.201401,-0.002 0.06349,-3e-5 0.112766,0.002 0.20142,0.002 16.99335,0 25.64851,-0.35174 30.11343,-0.71069 2.23245,-0.1795 3.41203,-0.35679 4.12098,-0.51708 0.35449,-0.0801 0.59031,-0.14989 0.82885,-0.26143 0.11925,-0.0559 0.24105,-0.12319 0.38343,-0.24015 0.0712,-0.0585 0.14821,-0.12947 0.22465,-0.22464 0.0764,-0.0952 0.21302,-0.36019 0.21302,-0.36019 l 0.70103,-1.68869 -1.80293,-0.31371 c 0,0 -4.13027,-0.71472 -9.25093,-2.22124 -8.37092,-2.51861 -13.702483,-5.90058 -17.184983,-10.77692 -3.42949,-4.80213 -5.116498,-11.23788 -5.774809,-20.01043 l 0.23045,0.34471 c 3.45812,5.17855 8.66838,9.77402 13.265401,11.36371 1.884811,0.6518 5.109121,1.00099 7.843051,0.99153 3.97178,-0.0142 5.96314,-0.52513 9.25479,-2.37424 4.8235,-2.70977 8.67194,-7.26445 9.95971,-12.026 0.55429,-2.04967 0.72387,-5.57327 0.53836,-8.49374 -0.27115,-4.26891 -1.07116,-7.58058 -3.88279,-11.68904 -2.81164,-4.10845 -7.54676,-9.10593 -15.86621,-17.48902 C 95.988914,94.412459 87.643188,81.493338 83.543747,68.565548 Z"
           id="path6580" />
        <path
           style="color:#000000;display:inline;fill:url(#linearGradient9788);fill-opacity:1;stroke-width:5.20546;-inkscape-stroke:none"
           d="m 83.544506,145.60993 c -0.751757,8.38536 -2.488993,15.02053 -6.168412,20.17261 -3.938224,5.51447 -9.984906,9.25356 -18.730366,11.88367 h -0.003 l -0.0059,0.001 c -0.66951,0.197 -0.581971,0.1195 -1.212764,0.29049 4.944353,0.27086 12.256677,0.5156 25.918373,0.51561 0.06375,0 0.113706,7e-5 0.201895,4e-5 0.08814,-1e-5 0.138097,-4e-5 0.20187,-5e-5 13.661697,1e-5 20.974018,-0.24473 25.918378,-0.5156 -0.63078,-0.17103 -0.54326,-0.0935 -1.21278,-0.29049 l -0.006,-0.001 h -0.003 c -8.745453,-2.6301 -14.792136,-6.36921 -18.730361,-11.88367 -3.679416,-5.15209 -5.416652,-11.78727 -6.168408,-20.1726 z"
           id="path6135-2" />
        <path
           id="path8004-9"
           style="color:#000000;display:inline;fill:url(#linearGradient32396);fill-opacity:1;stroke-width:2;stroke-linecap:square;stroke-linejoin:round;paint-order:stroke fill markers"
           d="m 83.697254,162.40913 c 4.099646,7.95112 9.334954,12.34994 9.334954,12.34994 0.0073,0.007 0.01445,0.0168 0.02157,0.0247 0.02399,0.0247 0.04678,0.0456 0.07026,0.0703 l -19.160604,-0.0144 c 0,0 5.954035,-4.47939 9.736522,-12.43056 z"
           sodipodi:nodetypes="ccccccc" />
        <path
           id="path8004-9-7"
           style="color:#000000;display:inline;fill:url(#linearGradient10146);fill-opacity:1;stroke-width:0.898904;stroke-linecap:square;stroke-linejoin:round;paint-order:stroke fill markers"
           d="m 83.612738,174.92114 c 1.842591,-3.57364 4.195604,-5.5507 4.195604,-5.5507 0.0033,-0.003 0.0065,-0.007 0.0098,-0.0109 0.01076,-0.0112 0.02101,-0.0205 0.03159,-0.0316 l -8.611749,0.007 c 0,0 2.676046,2.01327 4.376085,5.58692 z"
           sodipodi:nodetypes="ccccccc" />
        <path
           style="color:#000000;fill:url(#linearGradient10138);fill-opacity:1;stroke-linecap:square;-inkscape-stroke:none;paint-order:markers stroke fill"
           d="m 83.63912,71.213392 -1.406155,4.871737 c -0.04116,0.142672 -0.336589,1.170387 -0.509474,1.735934 -6.216599,16.521543 -25.349658,29.771527 -36.735625,45.257007 l -0.01759,0.0249 -0.0176,0.0249 c -6.356204,9.44772 -5.064407,22.84154 6.05431,30.05073 l 0.04118,0.0254 0.04256,0.023 c 4.041918,2.25341 10.241914,2.7695 15.79285,1.30866 l 0.07169,-0.0192 0.06825,-0.0245 c 7.612714,-2.83609 12.420178,-10.63855 16.614554,-16.95808 4.194455,6.31962 9.004598,14.12241 16.61754,16.95856 l 0.0672,0.0244 0.0719,0.0192 c 5.55093,1.46084 11.75145,0.94545 15.79336,-1.30797 l 0.0423,-0.0234 0.0413,-0.0272 c 11.11873,-7.20919 12.41003,-20.60202 6.05383,-30.04975 l -0.0172,-0.0257 -0.0184,-0.0233 C 110.90374,107.5928 91.770986,94.341699 85.55484,77.819622 85.381858,77.253636 85.084934,76.228569 85.043858,76.086167 Z m 4.01e-4,9.373994 c 7.289877,16.953649 25.715039,29.858644 36.267109,44.191434 5.5364,8.24633 4.604,19.52788 -5.18163,25.9095 -3.0123,1.6612 -8.71125,2.26843 -13.49926,1.03296 -6.795824,-2.56518 -11.731979,-10.83904 -16.279374,-17.50007 l -0.0035,-0.005 -1.304459,-1.92526 -1.305002,1.92888 c -4.54716,6.66051 -9.483894,14.93461 -16.278993,17.50106 -4.789263,1.23627 -10.490478,0.6295 -13.502744,-1.03261 -9.784152,-6.38122 -10.717891,-17.6626 -5.183012,-25.90854 C 57.92081,110.44566 76.349704,97.542203 83.63944,80.587263 Z"
           id="path10128" />
        <path
           style="color:#000000;fill:url(#linearGradient10118);stroke-width:2.92497;stroke-linecap:square;-inkscape-stroke:none;paint-order:markers stroke fill"
           d="m 83.639244,76.490763 c -0.04168,0.144499 -0.356711,1.23843 -0.536131,1.8208 -6.45796,17.199459 -25.781278,30.461807 -36.936028,45.632827 -5.957351,8.85487 -4.844011,21.21176 5.635248,28.00634 3.53162,1.96892 9.523421,2.53536 14.709961,1.17041 7.549039,-2.81236 12.525049,-11.47968 17.03174,-18.08056 l 0.09521,-0.14063 0.09522,0.14064 c 4.506678,6.60087 9.48269,15.2682 17.031736,18.08055 5.18654,1.36494 11.17834,0.79851 14.70996,-1.17041 10.47926,-6.79458 11.5926,-19.15147 5.63526,-28.00634 C 109.95665,108.77337 90.633345,95.511022 84.175386,78.311562 83.995964,77.729192 83.680929,76.635261 83.63925,76.490761 Z"
           id="path10130" />
        <path
           id="path2250"
           style="color:#000000;display:inline;fill:url(#linearGradient24091);fill-opacity:1;stroke-width:2.92497;stroke-linecap:square;-inkscape-stroke:none;paint-order:markers stroke fill"
           d="m 83.639264,76.490757 v 58.409183 l 0.0952,0.14064 c 4.506688,6.60088 9.48269,15.26821 17.031746,18.08057 5.18655,1.36493 11.17834,0.7985 14.70996,-1.17042 10.47927,-6.79459 11.5926,-19.15146 5.63525,-28.00634 C 109.95666,108.77335 90.633353,95.511046 84.175382,78.311567 83.99596,77.729198 83.680933,76.635257 83.639254,76.490757 Z"
           sodipodi:nodetypes="cccccccsc" />
        <path
           id="path2653-5-5-5"
           style="color:#000000;display:inline;fill:url(#linearGradient9750);fill-opacity:1;stroke-width:2.92497;-inkscape-stroke:none"
           d="m 83.689559,76.557163 v 51.582997 c 9.357514,7.49983 26.826361,-16.09302 35.186781,-7.49568 v 0 C 107.72156,105.47344 90.780345,95.54961 84.322369,78.350132 Z"
           sodipodi:nodetypes="cccccc" />
        <path
           id="path2250-50"
           style="color:#000000;display:inline;fill:url(#linearGradient9758);fill-opacity:1;stroke-width:2.92497;stroke-linecap:square;-inkscape-stroke:none;paint-order:markers stroke fill"
           d="m 83.542556,76.533212 -1e-6,58.409188 -0.09521,0.14063 c -4.50669,6.60089 -9.482689,15.26822 -17.031738,18.08057 -5.186564,1.36489 -11.178341,0.79851 -14.709961,-1.17041 -10.479268,-6.79458 -9.21054,-22.48992 -3.253189,-31.34481 11.154771,-15.17103 28.095998,-25.094874 34.553968,-42.294358 0.179419,-0.58237 0.49445,-1.67631 0.536131,-1.82081 z"
           sodipodi:nodetypes="cccccccc" />
        <path
           id="path2653-5-5"
           style="color:#000000;display:inline;fill:url(#linearGradient10482);fill-opacity:1;stroke-width:2.92497;-inkscape-stroke:none"
           d="m 83.716837,76.55716 v 51.583 C 74.359321,135.64 56.89047,112.04715 48.530052,120.64448 v 0 C 59.684832,105.47345 76.62605,95.549606 83.084024,78.350129 Z"
           sodipodi:nodetypes="cccccc" />
        <path
           id="path13339-6-9-6-6-1-7-8-6-7"
           style="display:inline;fill:url(#linearGradient20226);fill-opacity:1;stroke-width:0.193833"
           d="m 70.061991,126.46662 c 0,0 -0.996013,3.55663 2.499748,5.55767 3.495759,2.00105 11.077506,2.77165 11.077506,2.77165 l -10e-7,-4.94424 z"
           sodipodi:nodetypes="czccc" />
        <path
           id="path13339-6-9-6-6-1-7-8-6-7-7"
           style="display:inline;fill:url(#linearGradient9774);fill-opacity:1;stroke-width:0.193833"
           d="m 97.216493,126.46662 c 0,0 0.996013,3.55663 -2.499748,5.55768 -3.495758,2.00104 -11.0775,2.77164 -11.0775,2.77164 l -10e-7,-4.94424 z"
           sodipodi:nodetypes="czccc" />
        <path
           id="path13339-6-2-7-4-4"
           style="display:inline;fill:url(#linearGradient10490);fill-opacity:1;stroke-width:0.172384"
           d="m 90.408522,97.620246 c 2.208378,5.49e-4 3.998485,1.790651 3.999026,3.999024 -0.0024,1.60087 -0.958957,3.04615 -2.431642,3.67382 -0.406538,3.85274 -2.376339,8.25319 0.974121,10.79443 4.211967,-2.82407 4.829793,-2.39481 4.829793,-2.39481 0.244112,-2.00719 1.947754,-3.51658 3.96971,-3.51709 1.25769,0.002 2.39661,0.58897 3.13357,1.52201 0.99492,1.43972 1.0507,2.92817 0.34295,4.45806 -0.6889,1.20647 -1.9878,2.01963 -3.47654,2.01944 -1.10958,-0.002 -2.16855,-0.46446 -2.923808,-1.27734 -6.116551,5.41136 -1.609217,9.54108 -1.609217,9.54108 0,0 -3.004765,3.38507 -13.577251,3.38507 l 0.08383,-16.17052 c 0.01703,-3.28539 3.119935,-5.64617 4.663952,-8.58884 -1.223731,-0.71646 -1.976669,-2.02727 -1.979002,-3.44531 5.41e-4,-2.208941 1.79154,-3.99929 4.000488,-3.999018 z"
           sodipodi:nodetypes="ccccccccccccscccc" />
        <path
           id="path19167"
           style="fill:url(#linearGradient9796);fill-opacity:1;stroke:none;stroke-width:0.999997;stroke-linecap:square;stroke-linejoin:round;stroke-miterlimit:0;stroke-dasharray:none;stroke-opacity:1;paint-order:markers stroke fill;stop-color:#000000"
           d="m 104.01375,127.93368 c -2.40445,2.7336 -2.6845,8.42587 0.6709,11.28662 -0.49854,-2.02673 0.60154,-5.00876 2.50728,-6.79721 4.07316,-3.29753 9.15256,0.10412 10.225,3.96586 1.37126,6.04391 -1.73293,10.0153 -6.226,12.77894 -4.32032,2.63512 -14.73442,0.13627 -18.381229,-3.29588 12.503669,12.78645 31.989829,4.54024 30.186629,-10.59176 -0.65359,-5.50143 -4.75074,-9.1564 -8.53206,-10.35076 -3.78133,-1.19436 -8.04607,0.27059 -10.45052,3.00419 z"
           sodipodi:nodetypes="zcccccczz" />
        <path
           id="path19167-0"
           style="fill:url(#linearGradient16147);fill-opacity:1;stroke:none;stroke-width:0.999997;stroke-linecap:square;stroke-linejoin:round;stroke-miterlimit:0;stroke-dasharray:none;stroke-opacity:1;paint-order:markers stroke fill;stop-color:#000000"
           d="m 63.114488,127.91875 c 2.40445,2.7336 2.684499,8.42587 -0.670902,11.28661 0.49854,-2.02673 -0.601539,-5.00876 -2.507279,-6.7972 -4.07315,-3.29754 -9.152549,0.10412 -10.225,3.96585 -1.371248,6.04392 1.732931,10.01532 6.22601,12.77895 4.32031,2.63512 14.734416,0.13627 18.381223,-3.29587 -12.503672,12.78645 -31.989834,4.54022 -30.186631,-10.59176 0.6536,-5.50144 4.75074,-9.15641 8.532068,-10.35078 3.781331,-1.19435 8.046062,0.2706 10.450511,3.0042 z"
           sodipodi:nodetypes="zcccccczz" />
        <path
           id="path13339-6-2-7-4-4-8"
           style="display:inline;fill:url(#linearGradient9766);fill-opacity:1;stroke-width:0.172384"
           d="m 76.869953,97.648008 c -2.208376,5.4e-4 -3.998484,1.790645 -3.999024,3.999012 0.0024,1.60088 0.958958,3.04616 2.431642,3.67384 0.406538,3.85274 2.376338,8.25317 -0.974123,10.79442 -4.211968,-2.82407 -4.829794,-2.39481 -4.829794,-2.39481 -0.244107,-2.00719 -1.947754,-3.51658 -3.969713,-3.51708 -1.257692,0.002 -2.396614,0.58895 -3.133562,1.52199 -0.994928,1.43974 -1.050709,2.92818 -0.342959,4.45806 0.688899,1.20648 1.987798,2.01963 3.476538,2.01945 1.109581,-0.002 2.168559,-0.46446 2.923817,-1.27735 6.11655,5.41137 1.609216,9.54108 1.609216,9.54108 0,0 3.004764,3.38509 13.577252,3.38509 l 0.08382,-16.1983 c 0.017,-3.28538 -3.287586,-5.61839 -4.831606,-8.56107 1.223733,-0.71646 1.97667,-2.02727 1.979005,-3.44532 -5.4e-4,-2.208937 -1.79154,-3.999282 -4.000488,-3.999012 z"
           sodipodi:nodetypes="ccccccccccccscccc" />
      </g>
    </g>
  </g>
</svg>
